<svg xmlns="http://www.w3.org/2000/svg" viewBox="0 0 410.87 320.33"><defs><style>.cls-1{fill:#ff0;}</style></defs><title>boatMapSelected</title><g id="Calque_2" data-name="Calque 2"><g id="Calque_1-2" data-name="Calque 1"><path d="M366.07,178.9h-2.3q-71.31,0-142.61-.06c-2.1,0-2.5.57-2.44,2.53.15,4.9.14,9.81,0,14.72,0,1.8.34,2.31,2.24,2.3q49.32-.12,98.65-.1h91.25c-1.6,2.86-3,5.51-4.55,8.12q-16.5,28.59-33,57.17c-10.21,17.67-20.53,35.28-30.52,53.07-1.68,3-3.38,3.68-6.56,3.68q-131.88-.15-263.76-.06a3,3,0,0,1-3.11-1.65c-7.57-13.32-15.27-26.57-22.94-39.83q-16.89-29.21-33.79-58.4c-4.17-7.23-8.29-14.48-12.62-22H2.25q68.36,0,136.71,0,25.35,0,50.69.08c1.83,0,2.42-.33,2.42-2.32Q192,99.28,192,2.5c0-2,.43-2.54,2.47-2.5,7.5.14,15,.1,22.51,0,1.46,0,1.87.36,1.86,1.84-.08,8.77,0,17.54-.08,26.3a5.56,5.56,0,0,0,1.86,4.37Q292.82,104.88,365,177.26a9.23,9.23,0,0,0,1.54,1Z"/><path d="M187.34,61.42V131q0,22.62,0,45.23c0,1.17,0,1.85-1.59,1.85q-57.11-.09-114.2,0c-.27,0-.54,0-.19,0Z"/><path class="cls-1" d="M396.21,201.69l-9.47,16.43q-27.5,47.61-55,95.2c-.54.94-.94,1.82-2.3,1.18a3.68,3.68,0,0,0-1.45,0q-122.52,0-245,.08c-2.5,0-3.59-.72-4.78-2.8Q47.1,257.65,15.82,203.62c-.31-.53-.59-1.08-1-1.93h2l127-.05c16.76,0,33.52,0,50.27.11,2.11,0,2.46-.61,2.46-2.56q-.09-95.52-.1-191c0-2.12.48-2.72,2.62-2.62,4.06.19,8.13.06,12.19.06,2.94,0,2.94,0,2.94,2.83V158.22c0,13.82,0,27.63,0,41.45,0,1.62.38,2.07,2,2.06q26.19-.12,52.37-.09l125.36.05Z"/><path class="cls-1" d="M219.41,39.63l134.7,133.8a3.11,3.11,0,0,1-2.29.4q-65.08,0-130.16,0c-1.28,0-2.31.28-2.31-1.8q.12-65.84.06-131.67Z"/><path class="cls-1" d="M183.54,71V172.37c0,.95.26,1.86-1.38,1.86-33.92,0-67.84,0-101.31,0Z"/></g></g></svg>